solid Exported from Blender-2.93.5
facet normal 0.071742 0.924398 0.374622
outer loop
vertex 0.005093 0.868927 0.000000
vertex 0.005093 -0.019675 2.192671
vertex 0.225094 0.851853 0.000000
endloop
endfacet
facet normal 0.215113 0.899929 0.379281
outer loop
vertex 0.225094 0.851853 0.000000
vertex 0.005093 -0.019675 2.192671
vertex 0.436641 0.801287 0.000000
endloop
endfacet
facet normal 0.357693 0.849250 0.388368
outer loop
vertex 0.436641 0.801287 0.000000
vertex 0.005093 -0.019675 2.192671
vertex 0.631603 0.719171 0.000000
endloop
endfacet
facet normal 0.497388 0.769138 0.401288
outer loop
vertex 0.631603 0.719171 0.000000
vertex 0.005093 -0.019675 2.192671
vertex 0.802490 0.608662 0.000000
endloop
endfacet
facet normal 0.629554 0.655674 0.416838
outer loop
vertex 0.802490 0.608662 0.000000
vertex 0.005093 -0.019675 2.192671
vertex 0.942732 0.474006 0.000000
endloop
endfacet
facet normal 0.745992 0.506026 0.432936
outer loop
vertex 0.942732 0.474006 0.000000
vertex 0.005093 -0.019675 2.192671
vertex 1.046942 0.320378 0.000000
endloop
endfacet
facet normal 0.834998 0.321444 0.446601
outer loop
vertex 1.046942 0.320378 0.000000
vertex 0.005093 -0.019675 2.192671
vertex 1.111114 0.153683 0.000000
endloop
endfacet
facet normal 0.883840 0.110473 0.454558
outer loop
vertex 1.111114 0.153683 0.000000
vertex 0.005093 -0.019675 2.192671
vertex 1.132782 -0.019675 0.000000
endloop
endfacet
facet normal 0.883840 -0.110473 0.454558
outer loop
vertex 1.132782 -0.019675 0.000000
vertex 0.005093 -0.019675 2.192671
vertex 1.111114 -0.193033 0.000000
endloop
endfacet
facet normal 0.834998 -0.321444 0.446601
outer loop
vertex 1.111114 -0.193033 0.000000
vertex 0.005093 -0.019675 2.192671
vertex 1.046942 -0.359729 0.000000
endloop
endfacet
facet normal 0.745992 -0.506026 0.432936
outer loop
vertex 1.046942 -0.359729 0.000000
vertex 0.005093 -0.019675 2.192671
vertex 0.942732 -0.513356 0.000000
endloop
endfacet
facet normal 0.629554 -0.655674 0.416838
outer loop
vertex 0.942732 -0.513356 0.000000
vertex 0.005093 -0.019675 2.192671
vertex 0.802490 -0.648012 0.000000
endloop
endfacet
facet normal 0.497388 -0.769138 0.401288
outer loop
vertex 0.802490 -0.648012 0.000000
vertex 0.005093 -0.019675 2.192671
vertex 0.631603 -0.758521 0.000000
endloop
endfacet
facet normal 0.357693 -0.849250 0.388368
outer loop
vertex 0.631603 -0.758521 0.000000
vertex 0.005093 -0.019675 2.192671
vertex 0.436641 -0.840637 0.000000
endloop
endfacet
facet normal 0.215113 -0.899929 0.379281
outer loop
vertex 0.436641 -0.840637 0.000000
vertex 0.005093 -0.019675 2.192671
vertex 0.225094 -0.891204 0.000000
endloop
endfacet
facet normal 0.071742 -0.924398 0.374622
outer loop
vertex 0.225094 -0.891204 0.000000
vertex 0.005093 -0.019675 2.192671
vertex 0.005093 -0.908278 0.000000
endloop
endfacet
facet normal -0.071742 -0.924398 0.374622
outer loop
vertex 0.005093 -0.908278 0.000000
vertex 0.005093 -0.019675 2.192671
vertex -0.214908 -0.891204 0.000000
endloop
endfacet
facet normal -0.215113 -0.899929 0.379281
outer loop
vertex -0.214908 -0.891204 0.000000
vertex 0.005093 -0.019675 2.192671
vertex -0.426455 -0.840637 0.000000
endloop
endfacet
facet normal -0.357693 -0.849250 0.388368
outer loop
vertex -0.426455 -0.840637 0.000000
vertex 0.005093 -0.019675 2.192671
vertex -0.621417 -0.758521 0.000000
endloop
endfacet
facet normal -0.497388 -0.769138 0.401288
outer loop
vertex -0.621417 -0.758521 0.000000
vertex 0.005093 -0.019675 2.192671
vertex -0.792303 -0.648012 0.000000
endloop
endfacet
facet normal -0.629554 -0.655674 0.416838
outer loop
vertex -0.792303 -0.648012 0.000000
vertex 0.005093 -0.019675 2.192671
vertex -0.932546 -0.513357 0.000000
endloop
endfacet
facet normal -0.745992 -0.506026 0.432936
outer loop
vertex -0.932546 -0.513357 0.000000
vertex 0.005093 -0.019675 2.192671
vertex -1.036756 -0.359729 0.000000
endloop
endfacet
facet normal -0.834998 -0.321444 0.446601
outer loop
vertex -1.036756 -0.359729 0.000000
vertex 0.005093 -0.019675 2.192671
vertex -1.100927 -0.193033 0.000000
endloop
endfacet
facet normal -0.883840 -0.110473 0.454558
outer loop
vertex -1.100927 -0.193033 0.000000
vertex 0.005093 -0.019675 2.192671
vertex -1.122596 -0.019675 0.000000
endloop
endfacet
facet normal -0.883840 0.110473 0.454558
outer loop
vertex -1.122596 -0.019675 0.000000
vertex 0.005093 -0.019675 2.192671
vertex -1.100927 0.153683 0.000000
endloop
endfacet
facet normal -0.834997 0.321445 0.446601
outer loop
vertex -1.100927 0.153683 0.000000
vertex 0.005093 -0.019675 2.192671
vertex -1.036755 0.320378 0.000000
endloop
endfacet
facet normal -0.745992 0.506025 0.432936
outer loop
vertex -1.036755 0.320378 0.000000
vertex 0.005093 -0.019675 2.192671
vertex -0.932546 0.474006 0.000000
endloop
endfacet
facet normal -0.629554 0.655674 0.416838
outer loop
vertex -0.932546 0.474006 0.000000
vertex 0.005093 -0.019675 2.192671
vertex -0.792304 0.608662 0.000000
endloop
endfacet
facet normal -0.497388 0.769138 0.401288
outer loop
vertex -0.792304 0.608662 0.000000
vertex 0.005093 -0.019675 2.192671
vertex -0.621417 0.719171 0.000000
endloop
endfacet
facet normal -0.357693 0.849250 0.388368
outer loop
vertex -0.621417 0.719171 0.000000
vertex 0.005093 -0.019675 2.192671
vertex -0.426455 0.801287 0.000000
endloop
endfacet
facet normal 0.000000 0.000000 -1.000000
outer loop
vertex -0.214908 0.851853 0.000000
vertex 0.005093 0.868927 0.000000
vertex 0.225094 0.851853 0.000000
endloop
endfacet
facet normal 0.000000 0.000000 -1.000000
outer loop
vertex 0.225094 0.851853 0.000000
vertex 0.436641 0.801287 0.000000
vertex 0.631603 0.719171 0.000000
endloop
endfacet
facet normal 0.000000 0.000000 -1.000000
outer loop
vertex 0.631603 0.719171 0.000000
vertex 0.802490 0.608662 0.000000
vertex 0.942732 0.474006 0.000000
endloop
endfacet
facet normal 0.000000 0.000000 -1.000000
outer loop
vertex 0.942732 0.474006 0.000000
vertex 1.046942 0.320378 0.000000
vertex 1.111114 0.153683 0.000000
endloop
endfacet
facet normal 0.000000 0.000000 -1.000000
outer loop
vertex 1.111114 0.153683 0.000000
vertex 1.132782 -0.019675 0.000000
vertex 1.111114 -0.193033 0.000000
endloop
endfacet
facet normal 0.000000 0.000000 -1.000000
outer loop
vertex 1.111114 -0.193033 0.000000
vertex 1.046942 -0.359729 0.000000
vertex 0.942732 -0.513356 0.000000
endloop
endfacet
facet normal 0.000000 0.000000 -1.000000
outer loop
vertex 0.942732 -0.513356 0.000000
vertex 0.802490 -0.648012 0.000000
vertex 0.631603 -0.758521 0.000000
endloop
endfacet
facet normal 0.000000 0.000000 -1.000000
outer loop
vertex 0.631603 -0.758521 0.000000
vertex 0.436641 -0.840637 0.000000
vertex 0.225094 -0.891204 0.000000
endloop
endfacet
facet normal 0.000000 0.000000 -1.000000
outer loop
vertex 0.225094 -0.891204 0.000000
vertex 0.005093 -0.908278 0.000000
vertex -0.214908 -0.891204 0.000000
endloop
endfacet
facet normal 0.000000 0.000000 -1.000000
outer loop
vertex -0.214908 -0.891204 0.000000
vertex -0.426455 -0.840637 0.000000
vertex -0.621417 -0.758521 0.000000
endloop
endfacet
facet normal 0.000000 0.000000 -1.000000
outer loop
vertex -0.621417 -0.758521 0.000000
vertex -0.792303 -0.648012 0.000000
vertex -0.932546 -0.513357 0.000000
endloop
endfacet
facet normal 0.000000 0.000000 -1.000000
outer loop
vertex -0.932546 -0.513357 0.000000
vertex -1.036756 -0.359729 0.000000
vertex -1.100927 -0.193033 0.000000
endloop
endfacet
facet normal 0.000000 0.000000 -1.000000
outer loop
vertex -1.100927 -0.193033 0.000000
vertex -1.122596 -0.019675 0.000000
vertex -1.100927 0.153683 0.000000
endloop
endfacet
facet normal 0.000000 0.000000 -1.000000
outer loop
vertex -1.100927 0.153683 0.000000
vertex -1.036755 0.320378 0.000000
vertex -0.932546 0.474006 0.000000
endloop
endfacet
facet normal 0.000000 0.000000 -1.000000
outer loop
vertex -0.932546 0.474006 0.000000
vertex -0.792304 0.608662 0.000000
vertex -0.621417 0.719171 0.000000
endloop
endfacet
facet normal 0.000000 0.000000 -1.000000
outer loop
vertex -0.621417 0.719171 0.000000
vertex -0.426455 0.801287 0.000000
vertex -0.214908 0.851853 0.000000
endloop
endfacet
facet normal 0.000000 0.000000 -1.000000
outer loop
vertex -0.214908 0.851853 0.000000
vertex 0.225094 0.851853 0.000000
vertex 0.631603 0.719171 0.000000
endloop
endfacet
facet normal 0.000000 0.000000 -1.000000
outer loop
vertex 0.631603 0.719171 0.000000
vertex 0.942732 0.474006 0.000000
vertex 1.111114 0.153683 0.000000
endloop
endfacet
facet normal 0.000000 0.000000 -1.000000
outer loop
vertex 1.111114 0.153683 0.000000
vertex 1.111114 -0.193033 0.000000
vertex 0.942732 -0.513356 0.000000
endloop
endfacet
facet normal 0.000000 0.000000 -1.000000
outer loop
vertex 0.942732 -0.513356 0.000000
vertex 0.631603 -0.758521 0.000000
vertex 0.225094 -0.891204 0.000000
endloop
endfacet
facet normal 0.000000 0.000000 -1.000000
outer loop
vertex 0.225094 -0.891204 0.000000
vertex -0.214908 -0.891204 0.000000
vertex -0.621417 -0.758521 0.000000
endloop
endfacet
facet normal 0.000000 0.000000 -1.000000
outer loop
vertex -0.621417 -0.758521 0.000000
vertex -0.932546 -0.513357 0.000000
vertex -1.100927 -0.193033 0.000000
endloop
endfacet
facet normal 0.000000 0.000000 -1.000000
outer loop
vertex -1.100927 -0.193033 0.000000
vertex -1.100927 0.153683 0.000000
vertex -0.932546 0.474006 0.000000
endloop
endfacet
facet normal 0.000000 0.000000 -1.000000
outer loop
vertex -0.932546 0.474006 0.000000
vertex -0.621417 0.719171 0.000000
vertex -0.214908 0.851853 0.000000
endloop
endfacet
facet normal 0.000000 0.000000 -1.000000
outer loop
vertex -0.214908 0.851853 0.000000
vertex 0.631603 0.719171 0.000000
vertex 1.111114 0.153683 0.000000
endloop
endfacet
facet normal 0.000000 0.000000 -1.000000
outer loop
vertex 1.111114 0.153683 0.000000
vertex 0.942732 -0.513356 0.000000
vertex 0.225094 -0.891204 0.000000
endloop
endfacet
facet normal 0.000000 0.000000 -1.000000
outer loop
vertex 0.225094 -0.891204 0.000000
vertex -0.621417 -0.758521 0.000000
vertex -1.100927 -0.193033 0.000000
endloop
endfacet
facet normal 0.000000 0.000000 -1.000000
outer loop
vertex -1.100927 -0.193033 0.000000
vertex -0.932546 0.474006 0.000000
vertex -0.214908 0.851853 0.000000
endloop
endfacet
facet normal 0.000000 0.000000 -1.000000
outer loop
vertex -0.214908 0.851853 0.000000
vertex 1.111114 0.153683 0.000000
vertex 0.225094 -0.891204 0.000000
endloop
endfacet
facet normal 0.000000 0.000000 -1.000000
outer loop
vertex 0.225094 -0.891204 0.000000
vertex -1.100927 -0.193033 0.000000
vertex -0.214908 0.851853 0.000000
endloop
endfacet
facet normal -0.215113 0.899929 0.379281
outer loop
vertex -0.426455 0.801287 0.000000
vertex 0.005093 -0.019675 2.192671
vertex -0.214908 0.851853 0.000000
endloop
endfacet
facet normal -0.071742 0.924398 0.374622
outer loop
vertex -0.214908 0.851853 0.000000
vertex 0.005093 -0.019675 2.192671
vertex 0.005093 0.868927 0.000000
endloop
endfacet
endsolid Exported from Blender-2.93.5
