solid Exported from Blender-2.93.5
facet normal 0.098017 0.995185 0.000000
outer loop
vertex 0.493953 2.324798 -0.063919
vertex 0.493953 2.324798 4.536940
vertex 0.906759 2.284141 4.536940
endloop
endfacet
facet normal 0.098017 0.995185 0.000000
outer loop
vertex 0.493953 2.324798 -0.063919
vertex 0.906759 2.284141 4.536940
vertex 0.906759 2.284141 -0.063919
endloop
endfacet
facet normal 0.290285 0.956940 0.000000
outer loop
vertex 0.906759 2.284141 -0.063919
vertex 0.906759 2.284141 4.536940
vertex 1.303700 2.163730 4.536940
endloop
endfacet
facet normal 0.290285 0.956940 0.000000
outer loop
vertex 0.906759 2.284141 -0.063919
vertex 1.303700 2.163730 4.536940
vertex 1.303700 2.163730 -0.063919
endloop
endfacet
facet normal 0.471397 0.881921 0.000000
outer loop
vertex 1.303700 2.163730 -0.063919
vertex 1.303700 2.163730 4.536940
vertex 1.669523 1.968193 4.536940
endloop
endfacet
facet normal 0.471397 0.881921 0.000000
outer loop
vertex 1.303700 2.163730 -0.063919
vertex 1.669523 1.968193 4.536940
vertex 1.669523 1.968193 -0.063919
endloop
endfacet
facet normal 0.634393 0.773010 0.000000
outer loop
vertex 1.669523 1.968193 -0.063919
vertex 1.669523 1.968193 4.536940
vertex 1.990170 1.705045 4.536940
endloop
endfacet
facet normal 0.634393 0.773010 0.000000
outer loop
vertex 1.669523 1.968193 -0.063919
vertex 1.990170 1.705045 4.536940
vertex 1.990170 1.705045 -0.063919
endloop
endfacet
facet normal 0.773010 0.634393 0.000000
outer loop
vertex 1.990170 1.705045 -0.063919
vertex 1.990170 1.705045 4.536940
vertex 2.253318 1.384398 4.536940
endloop
endfacet
facet normal 0.773010 0.634393 0.000000
outer loop
vertex 1.990170 1.705045 -0.063919
vertex 2.253318 1.384398 4.536940
vertex 2.253318 1.384398 -0.063919
endloop
endfacet
facet normal 0.881921 0.471397 0.000000
outer loop
vertex 2.253318 1.384398 -0.063919
vertex 2.253318 1.384398 4.536940
vertex 2.448855 1.018575 4.536940
endloop
endfacet
facet normal 0.881922 0.471396 0.000000
outer loop
vertex 2.253318 1.384398 -0.063919
vertex 2.448855 1.018575 4.536940
vertex 2.448855 1.018575 -0.063919
endloop
endfacet
facet normal 0.956940 0.290285 0.000000
outer loop
vertex 2.448855 1.018575 -0.063919
vertex 2.448855 1.018575 4.536940
vertex 2.569266 0.621634 4.536940
endloop
endfacet
facet normal 0.956940 0.290286 0.000000
outer loop
vertex 2.448855 1.018575 -0.063919
vertex 2.569266 0.621634 4.536940
vertex 2.569266 0.621634 -0.063919
endloop
endfacet
facet normal 0.995185 0.098016 0.000000
outer loop
vertex 2.569266 0.621634 -0.063919
vertex 2.569266 0.621634 4.536940
vertex 2.609923 0.208828 4.536940
endloop
endfacet
facet normal 0.995185 0.098017 0.000000
outer loop
vertex 2.569266 0.621634 -0.063919
vertex 2.609923 0.208828 4.536940
vertex 2.609923 0.208828 -0.063919
endloop
endfacet
facet normal 0.995185 -0.098018 0.000000
outer loop
vertex 2.609923 0.208828 -0.063919
vertex 2.609923 0.208828 4.536940
vertex 2.569266 -0.203977 4.536940
endloop
endfacet
facet normal 0.995185 -0.098017 0.000000
outer loop
vertex 2.609923 0.208828 -0.063919
vertex 2.569266 -0.203977 4.536940
vertex 2.569266 -0.203977 -0.063919
endloop
endfacet
facet normal 0.956940 -0.290285 0.000000
outer loop
vertex 2.569266 -0.203977 -0.063919
vertex 2.569266 -0.203977 4.536940
vertex 2.448855 -0.600918 4.536940
endloop
endfacet
facet normal 0.956940 -0.290285 0.000000
outer loop
vertex 2.569266 -0.203977 -0.063919
vertex 2.448855 -0.600918 4.536940
vertex 2.448855 -0.600918 -0.063919
endloop
endfacet
facet normal 0.881922 -0.471396 0.000000
outer loop
vertex 2.448855 -0.600918 -0.063919
vertex 2.448855 -0.600918 4.536940
vertex 2.253318 -0.966742 4.536940
endloop
endfacet
facet normal 0.881921 -0.471397 0.000000
outer loop
vertex 2.448855 -0.600918 -0.063919
vertex 2.253318 -0.966742 4.536940
vertex 2.253318 -0.966742 -0.063919
endloop
endfacet
facet normal 0.773010 -0.634394 0.000000
outer loop
vertex 2.253318 -0.966742 -0.063919
vertex 2.253318 -0.966742 4.536940
vertex 1.990170 -1.287389 4.536940
endloop
endfacet
facet normal 0.773010 -0.634393 0.000000
outer loop
vertex 2.253318 -0.966742 -0.063919
vertex 1.990170 -1.287389 4.536940
vertex 1.990170 -1.287389 -0.063919
endloop
endfacet
facet normal 0.634394 -0.773010 0.000000
outer loop
vertex 1.990170 -1.287389 -0.063919
vertex 1.990170 -1.287389 4.536940
vertex 1.669523 -1.550537 4.536940
endloop
endfacet
facet normal 0.634393 -0.773010 0.000000
outer loop
vertex 1.990170 -1.287389 -0.063919
vertex 1.669523 -1.550537 4.536940
vertex 1.669523 -1.550537 -0.063919
endloop
endfacet
facet normal 0.471396 -0.881921 0.000000
outer loop
vertex 1.669523 -1.550537 -0.063919
vertex 1.669523 -1.550537 4.536940
vertex 1.303700 -1.746073 4.536940
endloop
endfacet
facet normal 0.471396 -0.881921 0.000000
outer loop
vertex 1.669523 -1.550537 -0.063919
vertex 1.303700 -1.746073 4.536940
vertex 1.303700 -1.746073 -0.063919
endloop
endfacet
facet normal 0.290285 -0.956940 0.000000
outer loop
vertex 1.303700 -1.746073 -0.063919
vertex 1.303700 -1.746073 4.536940
vertex 0.906758 -1.866484 4.536940
endloop
endfacet
facet normal 0.290285 -0.956940 0.000000
outer loop
vertex 1.303700 -1.746073 -0.063919
vertex 0.906758 -1.866484 4.536940
vertex 0.906758 -1.866484 -0.063919
endloop
endfacet
facet normal 0.098017 -0.995185 0.000000
outer loop
vertex 0.906758 -1.866484 -0.063919
vertex 0.906758 -1.866484 4.536940
vertex 0.493953 -1.907142 4.536940
endloop
endfacet
facet normal 0.098017 -0.995185 0.000000
outer loop
vertex 0.906758 -1.866484 -0.063919
vertex 0.493953 -1.907142 4.536940
vertex 0.493953 -1.907142 -0.063919
endloop
endfacet
facet normal -0.098017 -0.995185 0.000000
outer loop
vertex 0.493953 -1.907142 -0.063919
vertex 0.493953 -1.907142 4.536940
vertex 0.081148 -1.866484 4.536940
endloop
endfacet
facet normal -0.098017 -0.995185 0.000000
outer loop
vertex 0.493953 -1.907142 -0.063919
vertex 0.081148 -1.866484 4.536940
vertex 0.081148 -1.866484 -0.063919
endloop
endfacet
facet normal -0.290285 -0.956940 0.000000
outer loop
vertex 0.081148 -1.866484 -0.063919
vertex 0.081148 -1.866484 4.536940
vertex -0.315793 -1.746073 4.536940
endloop
endfacet
facet normal -0.290285 -0.956940 0.000000
outer loop
vertex 0.081148 -1.866484 -0.063919
vertex -0.315793 -1.746073 4.536940
vertex -0.315793 -1.746073 -0.063919
endloop
endfacet
facet normal -0.471397 -0.881921 0.000000
outer loop
vertex -0.315793 -1.746073 -0.063919
vertex -0.315793 -1.746073 4.536940
vertex -0.681617 -1.550537 4.536940
endloop
endfacet
facet normal -0.471397 -0.881921 0.000000
outer loop
vertex -0.315793 -1.746073 -0.063919
vertex -0.681617 -1.550537 4.536940
vertex -0.681617 -1.550537 -0.063919
endloop
endfacet
facet normal -0.634393 -0.773010 0.000000
outer loop
vertex -0.681617 -1.550537 -0.063919
vertex -0.681617 -1.550537 4.536940
vertex -1.002263 -1.287389 4.536940
endloop
endfacet
facet normal -0.634393 -0.773010 0.000000
outer loop
vertex -0.681617 -1.550537 -0.063919
vertex -1.002263 -1.287389 4.536940
vertex -1.002263 -1.287389 -0.063919
endloop
endfacet
facet normal -0.773010 -0.634394 0.000000
outer loop
vertex -1.002263 -1.287389 -0.063919
vertex -1.002263 -1.287389 4.536940
vertex -1.265411 -0.966742 4.536940
endloop
endfacet
facet normal -0.773010 -0.634393 0.000000
outer loop
vertex -1.002263 -1.287389 -0.063919
vertex -1.265411 -0.966742 4.536940
vertex -1.265411 -0.966742 -0.063919
endloop
endfacet
facet normal -0.881921 -0.471397 0.000000
outer loop
vertex -1.265411 -0.966742 -0.063919
vertex -1.265411 -0.966742 4.536940
vertex -1.460948 -0.600919 4.536940
endloop
endfacet
facet normal -0.881921 -0.471397 0.000000
outer loop
vertex -1.265411 -0.966742 -0.063919
vertex -1.460948 -0.600919 4.536940
vertex -1.460948 -0.600919 -0.063919
endloop
endfacet
facet normal -0.956940 -0.290285 0.000000
outer loop
vertex -1.460948 -0.600919 -0.063919
vertex -1.460948 -0.600919 4.536940
vertex -1.581359 -0.203977 4.536940
endloop
endfacet
facet normal -0.956940 -0.290284 0.000000
outer loop
vertex -1.460948 -0.600919 -0.063919
vertex -1.581359 -0.203977 4.536940
vertex -1.581359 -0.203977 -0.063919
endloop
endfacet
facet normal -0.995185 -0.098017 0.000000
outer loop
vertex -1.581359 -0.203977 -0.063919
vertex -1.581359 -0.203977 4.536940
vertex -1.622017 0.208828 4.536940
endloop
endfacet
facet normal -0.995185 -0.098017 0.000000
outer loop
vertex -1.581359 -0.203977 -0.063919
vertex -1.622017 0.208828 4.536940
vertex -1.622017 0.208828 -0.063919
endloop
endfacet
facet normal -0.995185 0.098017 0.000000
outer loop
vertex -1.622017 0.208828 -0.063919
vertex -1.622017 0.208828 4.536940
vertex -1.581359 0.621634 4.536940
endloop
endfacet
facet normal -0.995185 0.098017 0.000000
outer loop
vertex -1.622017 0.208828 -0.063919
vertex -1.581359 0.621634 4.536940
vertex -1.581359 0.621634 -0.063919
endloop
endfacet
facet normal -0.956940 0.290285 0.000000
outer loop
vertex -1.581359 0.621634 -0.063919
vertex -1.581359 0.621634 4.536940
vertex -1.460948 1.018575 4.536940
endloop
endfacet
facet normal -0.956940 0.290285 0.000000
outer loop
vertex -1.581359 0.621634 -0.063919
vertex -1.460948 1.018575 4.536940
vertex -1.460948 1.018575 -0.063919
endloop
endfacet
facet normal -0.881921 0.471397 0.000000
outer loop
vertex -1.460948 1.018575 -0.063919
vertex -1.460948 1.018575 4.536940
vertex -1.265412 1.384398 4.536940
endloop
endfacet
facet normal -0.881921 0.471397 0.000000
outer loop
vertex -1.460948 1.018575 -0.063919
vertex -1.265412 1.384398 4.536940
vertex -1.265412 1.384398 -0.063919
endloop
endfacet
facet normal -0.773011 0.634393 0.000000
outer loop
vertex -1.265412 1.384398 -0.063919
vertex -1.265412 1.384398 4.536940
vertex -1.002264 1.705045 4.536940
endloop
endfacet
facet normal -0.773011 0.634393 0.000000
outer loop
vertex -1.265412 1.384398 -0.063919
vertex -1.002264 1.705045 4.536940
vertex -1.002264 1.705045 -0.063919
endloop
endfacet
facet normal -0.634394 0.773010 0.000000
outer loop
vertex -1.002264 1.705045 -0.063919
vertex -1.002264 1.705045 4.536940
vertex -0.681617 1.968193 4.536940
endloop
endfacet
facet normal -0.634394 0.773010 0.000000
outer loop
vertex -1.002264 1.705045 -0.063919
vertex -0.681617 1.968193 4.536940
vertex -0.681617 1.968193 -0.063919
endloop
endfacet
facet normal -0.471397 0.881921 0.000000
outer loop
vertex -0.681617 1.968193 -0.063919
vertex -0.681617 1.968193 4.536940
vertex -0.315793 2.163730 4.536940
endloop
endfacet
facet normal -0.471397 0.881921 0.000000
outer loop
vertex -0.681617 1.968193 -0.063919
vertex -0.315793 2.163730 4.536940
vertex -0.315793 2.163730 -0.063919
endloop
endfacet
facet normal 0.000001 0.000000 1.000000
outer loop
vertex 1.303700 2.163730 4.536940
vertex 0.906759 2.284141 4.536940
vertex 0.493953 2.324798 4.536940
endloop
endfacet
facet normal 0.000000 0.000000 1.000000
outer loop
vertex 0.493953 2.324798 4.536940
vertex 0.081148 2.284141 4.536940
vertex -0.315793 2.163730 4.536940
endloop
endfacet
facet normal -0.000007 0.000000 1.000000
outer loop
vertex -0.315793 2.163730 4.536940
vertex -0.681617 1.968193 4.536940
vertex -1.002264 1.705045 4.536940
endloop
endfacet
facet normal 0.000007 0.000000 1.000000
outer loop
vertex -1.002264 1.705045 4.536940
vertex -1.265412 1.384398 4.536940
vertex -1.460948 1.018575 4.536940
endloop
endfacet
facet normal 0.000007 0.000000 1.000000
outer loop
vertex -1.460948 1.018575 4.536940
vertex -1.581359 0.621634 4.536940
vertex -1.622017 0.208828 4.536940
endloop
endfacet
facet normal -0.000007 0.000000 1.000000
outer loop
vertex -1.622017 0.208828 4.536940
vertex -1.581359 -0.203977 4.536940
vertex -1.460948 -0.600919 4.536940
endloop
endfacet
facet normal 0.000000 0.000000 1.000000
outer loop
vertex -1.460948 -0.600919 4.536940
vertex -1.265411 -0.966742 4.536940
vertex -1.002263 -1.287389 4.536940
endloop
endfacet
facet normal -0.000007 0.000000 1.000000
outer loop
vertex -1.002263 -1.287389 4.536940
vertex -0.681617 -1.550537 4.536940
vertex -0.315793 -1.746073 4.536940
endloop
endfacet
facet normal -0.000001 0.000000 1.000000
outer loop
vertex -0.315793 -1.746073 4.536940
vertex 0.081148 -1.866484 4.536940
vertex 0.493953 -1.907142 4.536940
endloop
endfacet
facet normal 0.000000 0.000000 1.000000
outer loop
vertex 0.493953 -1.907142 4.536940
vertex 0.906758 -1.866484 4.536940
vertex 1.303700 -1.746073 4.536940
endloop
endfacet
facet normal 0.000000 0.000000 1.000000
outer loop
vertex 1.303700 -1.746073 4.536940
vertex 1.669523 -1.550537 4.536940
vertex 1.990170 -1.287389 4.536940
endloop
endfacet
facet normal -0.000007 0.000000 1.000000
outer loop
vertex 1.990170 -1.287389 4.536940
vertex 2.253318 -0.966742 4.536940
vertex 2.448855 -0.600918 4.536940
endloop
endfacet
facet normal -0.000007 0.000000 1.000000
outer loop
vertex 2.448855 -0.600918 4.536940
vertex 2.569266 -0.203977 4.536940
vertex 2.609923 0.208828 4.536940
endloop
endfacet
facet normal 0.000000 0.000000 1.000000
outer loop
vertex 2.609923 0.208828 4.536940
vertex 2.569266 0.621634 4.536940
vertex 2.448855 1.018575 4.536940
endloop
endfacet
facet normal 0.000007 0.000000 1.000000
outer loop
vertex 2.448855 1.018575 4.536940
vertex 2.253318 1.384398 4.536940
vertex 1.990170 1.705045 4.536940
endloop
endfacet
facet normal 0.000000 0.000000 1.000000
outer loop
vertex 1.990170 1.705045 4.536940
vertex 1.669523 1.968193 4.536940
vertex 1.303700 2.163730 4.536940
endloop
endfacet
facet normal 0.000000 0.000000 1.000000
outer loop
vertex 1.303700 2.163730 4.536940
vertex 0.493953 2.324798 4.536940
vertex -0.315793 2.163730 4.536940
endloop
endfacet
facet normal 0.000002 0.000000 1.000000
outer loop
vertex -0.315793 2.163730 4.536940
vertex -1.002264 1.705045 4.536940
vertex -1.460948 1.018575 4.536940
endloop
endfacet
facet normal 0.000000 0.000000 1.000000
outer loop
vertex -1.460948 1.018575 4.536940
vertex -1.622017 0.208828 4.536940
vertex -1.460948 -0.600919 4.536940
endloop
endfacet
facet normal 0.000002 0.000000 1.000000
outer loop
vertex -1.460948 -0.600919 4.536940
vertex -1.002263 -1.287389 4.536940
vertex -0.315793 -1.746073 4.536940
endloop
endfacet
facet normal 0.000000 0.000000 1.000000
outer loop
vertex -0.315793 -1.746073 4.536940
vertex 0.493953 -1.907142 4.536940
vertex 1.303700 -1.746073 4.536940
endloop
endfacet
facet normal 0.000000 0.000000 1.000000
outer loop
vertex 1.303700 -1.746073 4.536940
vertex 1.990170 -1.287389 4.536940
vertex 2.448855 -0.600918 4.536940
endloop
endfacet
facet normal -0.000002 0.000000 1.000000
outer loop
vertex 2.448855 -0.600918 4.536940
vertex 2.609923 0.208828 4.536940
vertex 2.448855 1.018575 4.536940
endloop
endfacet
facet normal 0.000000 0.000000 1.000000
outer loop
vertex 2.448855 1.018575 4.536940
vertex 1.990170 1.705045 4.536940
vertex 1.303700 2.163730 4.536940
endloop
endfacet
facet normal 0.000000 0.000000 1.000000
outer loop
vertex 1.303700 2.163730 4.536940
vertex -0.315793 2.163730 4.536940
vertex -1.460948 1.018575 4.536940
endloop
endfacet
facet normal 0.000000 0.000000 1.000000
outer loop
vertex -1.460948 1.018575 4.536940
vertex -1.460948 -0.600919 4.536940
vertex -0.315793 -1.746073 4.536940
endloop
endfacet
facet normal 0.000000 0.000000 1.000000
outer loop
vertex -0.315793 -1.746073 4.536940
vertex 1.303700 -1.746073 4.536940
vertex 2.448855 -0.600918 4.536940
endloop
endfacet
facet normal 0.000001 0.000000 1.000000
outer loop
vertex 2.448855 -0.600918 4.536940
vertex 2.448855 1.018575 4.536940
vertex 1.303700 2.163730 4.536940
endloop
endfacet
facet normal -0.000000 0.000000 1.000000
outer loop
vertex 1.303700 2.163730 4.536940
vertex -1.460948 1.018575 4.536940
vertex -0.315793 -1.746073 4.536940
endloop
endfacet
facet normal 0.000000 0.000000 1.000000
outer loop
vertex -0.315793 -1.746073 4.536940
vertex 2.448855 -0.600918 4.536940
vertex 1.303700 2.163730 4.536940
endloop
endfacet
facet normal -0.290285 0.956940 0.000000
outer loop
vertex -0.315793 2.163730 -0.063919
vertex -0.315793 2.163730 4.536940
vertex 0.081148 2.284141 4.536940
endloop
endfacet
facet normal -0.290285 0.956940 0.000000
outer loop
vertex -0.315793 2.163730 -0.063919
vertex 0.081148 2.284141 4.536940
vertex 0.081148 2.284141 -0.063919
endloop
endfacet
facet normal -0.098017 0.995185 0.000000
outer loop
vertex 0.081148 2.284141 -0.063919
vertex 0.081148 2.284141 4.536940
vertex 0.493953 2.324798 4.536940
endloop
endfacet
facet normal -0.098017 0.995185 0.000000
outer loop
vertex 0.081148 2.284141 -0.063919
vertex 0.493953 2.324798 4.536940
vertex 0.493953 2.324798 -0.063919
endloop
endfacet
facet normal 0.000000 0.000000 -1.000000
outer loop
vertex 0.081148 2.284141 -0.063919
vertex 0.493953 2.324798 -0.063919
vertex 0.906759 2.284141 -0.063919
endloop
endfacet
facet normal 0.000000 0.000000 -1.000000
outer loop
vertex 0.906759 2.284141 -0.063919
vertex 1.303700 2.163730 -0.063919
vertex 1.669523 1.968193 -0.063919
endloop
endfacet
facet normal -0.000000 0.000000 -1.000000
outer loop
vertex 1.669523 1.968193 -0.063919
vertex 1.990170 1.705045 -0.063919
vertex 2.253318 1.384398 -0.063919
endloop
endfacet
facet normal 0.000000 0.000000 -1.000000
outer loop
vertex 2.253318 1.384398 -0.063919
vertex 2.448855 1.018575 -0.063919
vertex 2.569266 0.621634 -0.063919
endloop
endfacet
facet normal 0.000000 0.000000 -1.000000
outer loop
vertex 2.569266 0.621634 -0.063919
vertex 2.609923 0.208828 -0.063919
vertex 2.569266 -0.203977 -0.063919
endloop
endfacet
facet normal -0.000000 0.000000 -1.000000
outer loop
vertex 2.569266 -0.203977 -0.063919
vertex 2.448855 -0.600918 -0.063919
vertex 2.253318 -0.966742 -0.063919
endloop
endfacet
facet normal -0.000000 0.000000 -1.000000
outer loop
vertex 2.253318 -0.966742 -0.063919
vertex 1.990170 -1.287389 -0.063919
vertex 1.669523 -1.550537 -0.063919
endloop
endfacet
facet normal -0.000000 0.000000 -1.000000
outer loop
vertex 1.669523 -1.550537 -0.063919
vertex 1.303700 -1.746073 -0.063919
vertex 0.906758 -1.866484 -0.063919
endloop
endfacet
facet normal 0.000000 0.000000 -1.000000
outer loop
vertex 0.906758 -1.866484 -0.063919
vertex 0.493953 -1.907142 -0.063919
vertex 0.081148 -1.866484 -0.063919
endloop
endfacet
facet normal -0.000000 0.000000 -1.000000
outer loop
vertex 0.081148 -1.866484 -0.063919
vertex -0.315793 -1.746073 -0.063919
vertex -0.681617 -1.550537 -0.063919
endloop
endfacet
facet normal -0.000000 0.000000 -1.000000
outer loop
vertex -0.681617 -1.550537 -0.063919
vertex -1.002263 -1.287389 -0.063919
vertex -1.265411 -0.966742 -0.063919
endloop
endfacet
facet normal 0.000000 0.000000 -1.000000
outer loop
vertex -1.265411 -0.966742 -0.063919
vertex -1.460948 -0.600919 -0.063919
vertex -1.581359 -0.203977 -0.063919
endloop
endfacet
facet normal 0.000000 0.000000 -1.000000
outer loop
vertex -1.581359 -0.203977 -0.063919
vertex -1.622017 0.208828 -0.063919
vertex -1.581359 0.621634 -0.063919
endloop
endfacet
facet normal -0.000000 0.000000 -1.000000
outer loop
vertex -1.581359 0.621634 -0.063919
vertex -1.460948 1.018575 -0.063919
vertex -1.265412 1.384398 -0.063919
endloop
endfacet
facet normal 0.000000 0.000000 -1.000000
outer loop
vertex -1.265412 1.384398 -0.063919
vertex -1.002264 1.705045 -0.063919
vertex -0.681617 1.968193 -0.063919
endloop
endfacet
facet normal -0.000000 0.000000 -1.000000
outer loop
vertex -0.681617 1.968193 -0.063919
vertex -0.315793 2.163730 -0.063919
vertex 0.081148 2.284141 -0.063919
endloop
endfacet
facet normal 0.000000 0.000000 -1.000000
outer loop
vertex 0.081148 2.284141 -0.063919
vertex 0.906759 2.284141 -0.063919
vertex 1.669523 1.968193 -0.063919
endloop
endfacet
facet normal 0.000000 0.000000 -1.000000
outer loop
vertex 1.669523 1.968193 -0.063919
vertex 2.253318 1.384398 -0.063919
vertex 2.569266 0.621634 -0.063919
endloop
endfacet
facet normal 0.000000 0.000000 -1.000000
outer loop
vertex 2.569266 0.621634 -0.063919
vertex 2.569266 -0.203977 -0.063919
vertex 2.253318 -0.966742 -0.063919
endloop
endfacet
facet normal 0.000000 0.000000 -1.000000
outer loop
vertex 2.253318 -0.966742 -0.063919
vertex 1.669523 -1.550537 -0.063919
vertex 0.906758 -1.866484 -0.063919
endloop
endfacet
facet normal 0.000000 0.000000 -1.000000
outer loop
vertex 0.906758 -1.866484 -0.063919
vertex 0.081148 -1.866484 -0.063919
vertex -0.681617 -1.550537 -0.063919
endloop
endfacet
facet normal 0.000000 0.000000 -1.000000
outer loop
vertex -0.681617 -1.550537 -0.063919
vertex -1.265411 -0.966742 -0.063919
vertex -1.581359 -0.203977 -0.063919
endloop
endfacet
facet normal -0.000000 0.000000 -1.000000
outer loop
vertex -1.581359 -0.203977 -0.063919
vertex -1.581359 0.621634 -0.063919
vertex -1.265412 1.384398 -0.063919
endloop
endfacet
facet normal 0.000000 0.000000 -1.000000
outer loop
vertex -1.265412 1.384398 -0.063919
vertex -0.681617 1.968193 -0.063919
vertex 0.081148 2.284141 -0.063919
endloop
endfacet
facet normal -0.000000 0.000000 -1.000000
outer loop
vertex 0.081148 2.284141 -0.063919
vertex 1.669523 1.968193 -0.063919
vertex 2.569266 0.621634 -0.063919
endloop
endfacet
facet normal -0.000000 0.000000 -1.000000
outer loop
vertex 2.569266 0.621634 -0.063919
vertex 2.253318 -0.966742 -0.063919
vertex 0.906758 -1.866484 -0.063919
endloop
endfacet
facet normal 0.000000 0.000000 -1.000000
outer loop
vertex 0.906758 -1.866484 -0.063919
vertex -0.681617 -1.550537 -0.063919
vertex -1.581359 -0.203977 -0.063919
endloop
endfacet
facet normal 0.000000 0.000000 -1.000000
outer loop
vertex -1.581359 -0.203977 -0.063919
vertex -1.265412 1.384398 -0.063919
vertex 0.081148 2.284141 -0.063919
endloop
endfacet
facet normal 0.000000 0.000000 -1.000000
outer loop
vertex 0.081148 2.284141 -0.063919
vertex 2.569266 0.621634 -0.063919
vertex 0.906758 -1.866484 -0.063919
endloop
endfacet
facet normal 0.000000 0.000000 -1.000000
outer loop
vertex 0.906758 -1.866484 -0.063919
vertex -1.581359 -0.203977 -0.063919
vertex 0.081148 2.284141 -0.063919
endloop
endfacet
endsolid Exported from Blender-2.93.5
